<mxfile host="app.diagrams.net" modified="2023-09-19T11:37:44.324Z" agent="Mozilla/5.0 (Windows NT 10.0; Win64; x64) AppleWebKit/537.36 (KHTML, like Gecko) Chrome/116.0.0.0 Safari/537.36" etag="qdR7KC1Uw8vHuA5eSPSo" version="21.7.5" type="github">
  <diagram name="Page-1" id="2CYEx7mDn7cppjQ2Fufr">
    <mxGraphModel dx="722" dy="456" grid="1" gridSize="10" guides="1" tooltips="1" connect="1" arrows="1" fold="1" page="1" pageScale="1" pageWidth="827" pageHeight="1169" math="0" shadow="0">
      <root>
        <mxCell id="0" />
        <mxCell id="1" parent="0" />
        <mxCell id="x5du00-JkGEKFLk9tHyB-1" value="Passenger" style="swimlane;whiteSpace=wrap;html=1;" vertex="1" parent="1">
          <mxGeometry x="105" y="40" width="210" height="660" as="geometry">
            <mxRectangle x="110" y="40" width="140" height="30" as="alternateBounds" />
          </mxGeometry>
        </mxCell>
        <mxCell id="x5du00-JkGEKFLk9tHyB-2" value="" style="ellipse;html=1;shape=startState;fillColor=#000000;strokeColor=#fbf4f4;" vertex="1" parent="x5du00-JkGEKFLk9tHyB-1">
          <mxGeometry x="60" y="40" width="30" height="30" as="geometry" />
        </mxCell>
        <mxCell id="x5du00-JkGEKFLk9tHyB-3" value="" style="edgeStyle=orthogonalEdgeStyle;html=1;verticalAlign=bottom;endArrow=open;endSize=8;strokeColor=#000000;rounded=0;" edge="1" source="x5du00-JkGEKFLk9tHyB-2" parent="x5du00-JkGEKFLk9tHyB-1">
          <mxGeometry relative="1" as="geometry">
            <mxPoint x="75" y="100" as="targetPoint" />
          </mxGeometry>
        </mxCell>
        <mxCell id="x5du00-JkGEKFLk9tHyB-44" style="edgeStyle=orthogonalEdgeStyle;rounded=0;orthogonalLoop=1;jettySize=auto;html=1;exitX=0.5;exitY=1;exitDx=0;exitDy=0;entryX=0.5;entryY=0;entryDx=0;entryDy=0;" edge="1" parent="x5du00-JkGEKFLk9tHyB-1" source="x5du00-JkGEKFLk9tHyB-5" target="x5du00-JkGEKFLk9tHyB-6">
          <mxGeometry relative="1" as="geometry" />
        </mxCell>
        <mxCell id="x5du00-JkGEKFLk9tHyB-5" value="Login" style="rounded=1;whiteSpace=wrap;html=1;" vertex="1" parent="x5du00-JkGEKFLk9tHyB-1">
          <mxGeometry x="22.5" y="100" width="105" height="30" as="geometry" />
        </mxCell>
        <mxCell id="x5du00-JkGEKFLk9tHyB-6" value="Set Destination" style="rounded=1;whiteSpace=wrap;html=1;" vertex="1" parent="x5du00-JkGEKFLk9tHyB-1">
          <mxGeometry x="22.5" y="150" width="107.5" height="30" as="geometry" />
        </mxCell>
        <mxCell id="x5du00-JkGEKFLk9tHyB-7" value="Save" style="shape=rhombus;html=1;dashed=0;whiteSpace=wrap;perimeter=rhombusPerimeter;" vertex="1" parent="x5du00-JkGEKFLk9tHyB-1">
          <mxGeometry x="80" y="220" width="53.75" height="40" as="geometry" />
        </mxCell>
        <mxCell id="x5du00-JkGEKFLk9tHyB-11" value="" style="endArrow=classic;html=1;rounded=0;exitX=0.5;exitY=1;exitDx=0;exitDy=0;entryX=0.47;entryY=0.491;entryDx=0;entryDy=0;entryPerimeter=0;" edge="1" parent="x5du00-JkGEKFLk9tHyB-1" source="x5du00-JkGEKFLk9tHyB-6" target="x5du00-JkGEKFLk9tHyB-28">
          <mxGeometry width="50" height="50" relative="1" as="geometry">
            <mxPoint x="190" y="250" as="sourcePoint" />
            <mxPoint x="240" y="200" as="targetPoint" />
          </mxGeometry>
        </mxCell>
        <mxCell id="x5du00-JkGEKFLk9tHyB-16" value="Ask Mode Of Transportation" style="rounded=1;whiteSpace=wrap;html=1;" vertex="1" parent="x5du00-JkGEKFLk9tHyB-1">
          <mxGeometry x="22.5" y="280" width="107.5" height="30" as="geometry" />
        </mxCell>
        <mxCell id="x5du00-JkGEKFLk9tHyB-10" value="" style="endArrow=classic;html=1;rounded=0;exitX=0.5;exitY=1;exitDx=0;exitDy=0;" edge="1" parent="x5du00-JkGEKFLk9tHyB-1" source="x5du00-JkGEKFLk9tHyB-7">
          <mxGeometry width="50" height="50" relative="1" as="geometry">
            <mxPoint x="180" y="290" as="sourcePoint" />
            <mxPoint x="107" y="280" as="targetPoint" />
          </mxGeometry>
        </mxCell>
        <mxCell id="x5du00-JkGEKFLk9tHyB-28" value="" style="line;strokeWidth=2;html=1;" vertex="1" parent="x5du00-JkGEKFLk9tHyB-1">
          <mxGeometry y="190" width="160" height="10" as="geometry" />
        </mxCell>
        <mxCell id="x5du00-JkGEKFLk9tHyB-26" value="Yes" style="text;html=1;align=center;verticalAlign=middle;resizable=0;points=[];autosize=1;strokeColor=none;fillColor=none;" vertex="1" parent="x5du00-JkGEKFLk9tHyB-1">
          <mxGeometry x="150" y="210" width="40" height="30" as="geometry" />
        </mxCell>
        <mxCell id="x5du00-JkGEKFLk9tHyB-30" value="" style="endArrow=classic;html=1;rounded=0;exitX=0.25;exitY=0.5;exitDx=0;exitDy=0;exitPerimeter=0;entryX=0.161;entryY=0.088;entryDx=0;entryDy=0;entryPerimeter=0;" edge="1" parent="x5du00-JkGEKFLk9tHyB-1" source="x5du00-JkGEKFLk9tHyB-28" target="x5du00-JkGEKFLk9tHyB-16">
          <mxGeometry width="50" height="50" relative="1" as="geometry">
            <mxPoint x="300" y="300" as="sourcePoint" />
            <mxPoint x="350" y="250" as="targetPoint" />
          </mxGeometry>
        </mxCell>
        <mxCell id="x5du00-JkGEKFLk9tHyB-31" value="" style="endArrow=classic;html=1;rounded=0;exitX=0.666;exitY=0.764;exitDx=0;exitDy=0;exitPerimeter=0;entryX=0.5;entryY=0;entryDx=0;entryDy=0;" edge="1" parent="x5du00-JkGEKFLk9tHyB-1" source="x5du00-JkGEKFLk9tHyB-28" target="x5du00-JkGEKFLk9tHyB-7">
          <mxGeometry width="50" height="50" relative="1" as="geometry">
            <mxPoint x="300" y="300" as="sourcePoint" />
            <mxPoint x="350" y="250" as="targetPoint" />
          </mxGeometry>
        </mxCell>
        <mxCell id="x5du00-JkGEKFLk9tHyB-36" value="Provide Shortest Route" style="rounded=1;whiteSpace=wrap;html=1;" vertex="1" parent="x5du00-JkGEKFLk9tHyB-1">
          <mxGeometry x="16.25" y="466.25" width="133.75" height="37.5" as="geometry" />
        </mxCell>
        <mxCell id="x5du00-JkGEKFLk9tHyB-43" style="edgeStyle=orthogonalEdgeStyle;rounded=0;orthogonalLoop=1;jettySize=auto;html=1;exitX=0.5;exitY=1;exitDx=0;exitDy=0;entryX=0.5;entryY=0;entryDx=0;entryDy=0;" edge="1" parent="x5du00-JkGEKFLk9tHyB-1" source="x5du00-JkGEKFLk9tHyB-38" target="x5du00-JkGEKFLk9tHyB-42">
          <mxGeometry relative="1" as="geometry" />
        </mxCell>
        <mxCell id="x5du00-JkGEKFLk9tHyB-38" value="Happy with Suggestion" style="shape=rhombus;html=1;dashed=0;whiteSpace=wrap;perimeter=rhombusPerimeter;" vertex="1" parent="x5du00-JkGEKFLk9tHyB-1">
          <mxGeometry x="56.25" y="525" width="53.75" height="45" as="geometry" />
        </mxCell>
        <mxCell id="x5du00-JkGEKFLk9tHyB-37" style="edgeStyle=orthogonalEdgeStyle;rounded=0;orthogonalLoop=1;jettySize=auto;html=1;exitX=0.5;exitY=1;exitDx=0;exitDy=0;" edge="1" parent="x5du00-JkGEKFLk9tHyB-1" source="x5du00-JkGEKFLk9tHyB-36" target="x5du00-JkGEKFLk9tHyB-38">
          <mxGeometry relative="1" as="geometry">
            <mxPoint x="83.45454545454538" y="530" as="targetPoint" />
          </mxGeometry>
        </mxCell>
        <mxCell id="x5du00-JkGEKFLk9tHyB-42" value="" style="ellipse;html=1;shape=endState;fillColor=#000000;strokeColor=#0e0101;" vertex="1" parent="x5du00-JkGEKFLk9tHyB-1">
          <mxGeometry x="72.19" y="600" width="21.87" height="20" as="geometry" />
        </mxCell>
        <mxCell id="x5du00-JkGEKFLk9tHyB-46" value="No" style="text;html=1;align=center;verticalAlign=middle;resizable=0;points=[];autosize=1;strokeColor=none;fillColor=none;" vertex="1" parent="x5du00-JkGEKFLk9tHyB-1">
          <mxGeometry x="15" y="525" width="40" height="30" as="geometry" />
        </mxCell>
        <mxCell id="x5du00-JkGEKFLk9tHyB-45" value="Yes" style="text;html=1;align=center;verticalAlign=middle;resizable=0;points=[];autosize=1;strokeColor=none;fillColor=none;" vertex="1" parent="x5du00-JkGEKFLk9tHyB-1">
          <mxGeometry x="80" y="570" width="40" height="30" as="geometry" />
        </mxCell>
        <mxCell id="x5du00-JkGEKFLk9tHyB-8" value="" style="endArrow=classic;html=1;rounded=0;exitX=1;exitY=0.5;exitDx=0;exitDy=0;" edge="1" parent="1" source="x5du00-JkGEKFLk9tHyB-7" target="x5du00-JkGEKFLk9tHyB-9">
          <mxGeometry width="50" height="50" relative="1" as="geometry">
            <mxPoint x="330" y="260" as="sourcePoint" />
            <mxPoint x="390" y="270" as="targetPoint" />
          </mxGeometry>
        </mxCell>
        <mxCell id="x5du00-JkGEKFLk9tHyB-9" value="Send daily Activity of the route" style="rounded=1;whiteSpace=wrap;html=1;" vertex="1" parent="1">
          <mxGeometry x="380" y="260" width="110" height="40" as="geometry" />
        </mxCell>
        <mxCell id="x5du00-JkGEKFLk9tHyB-12" value="Real-time Bus/Metro service Availability" style="rounded=1;whiteSpace=wrap;html=1;" vertex="1" parent="1">
          <mxGeometry x="640" y="385" width="120" height="30" as="geometry" />
        </mxCell>
        <mxCell id="x5du00-JkGEKFLk9tHyB-13" value="Public Transport" style="rounded=1;whiteSpace=wrap;html=1;" vertex="1" parent="1">
          <mxGeometry x="510" y="390" width="100" height="20" as="geometry" />
        </mxCell>
        <mxCell id="x5du00-JkGEKFLk9tHyB-14" value="Cyclist/Pedestrians" style="rounded=1;whiteSpace=wrap;html=1;" vertex="1" parent="1">
          <mxGeometry x="400" y="390" width="100" height="20" as="geometry" />
        </mxCell>
        <mxCell id="x5du00-JkGEKFLk9tHyB-15" value="Bike/Car" style="rounded=1;whiteSpace=wrap;html=1;" vertex="1" parent="1">
          <mxGeometry x="310" y="390" width="80" height="20" as="geometry" />
        </mxCell>
        <mxCell id="x5du00-JkGEKFLk9tHyB-18" value="" style="line;strokeWidth=2;html=1;" vertex="1" parent="1">
          <mxGeometry x="315" y="360" width="270" height="10" as="geometry" />
        </mxCell>
        <mxCell id="x5du00-JkGEKFLk9tHyB-17" style="edgeStyle=orthogonalEdgeStyle;rounded=0;orthogonalLoop=1;jettySize=auto;html=1;exitX=1;exitY=0.5;exitDx=0;exitDy=0;entryX=0.502;entryY=0.433;entryDx=0;entryDy=0;entryPerimeter=0;" edge="1" parent="1" source="x5du00-JkGEKFLk9tHyB-16" target="x5du00-JkGEKFLk9tHyB-18">
          <mxGeometry relative="1" as="geometry">
            <mxPoint x="420" y="360" as="targetPoint" />
            <Array as="points">
              <mxPoint x="235" y="330" />
              <mxPoint x="451" y="330" />
            </Array>
          </mxGeometry>
        </mxCell>
        <mxCell id="x5du00-JkGEKFLk9tHyB-20" value="" style="endArrow=classic;html=1;rounded=0;exitX=1;exitY=0.5;exitDx=0;exitDy=0;" edge="1" parent="1" source="x5du00-JkGEKFLk9tHyB-13">
          <mxGeometry width="50" height="50" relative="1" as="geometry">
            <mxPoint x="520" y="410" as="sourcePoint" />
            <mxPoint x="640" y="400" as="targetPoint" />
          </mxGeometry>
        </mxCell>
        <mxCell id="x5du00-JkGEKFLk9tHyB-21" value="" style="line;strokeWidth=2;html=1;" vertex="1" parent="1">
          <mxGeometry x="330" y="470" width="270" height="10" as="geometry" />
        </mxCell>
        <mxCell id="x5du00-JkGEKFLk9tHyB-22" value="" style="endArrow=classic;html=1;rounded=0;exitX=0.5;exitY=1;exitDx=0;exitDy=0;" edge="1" parent="1" source="x5du00-JkGEKFLk9tHyB-14">
          <mxGeometry width="50" height="50" relative="1" as="geometry">
            <mxPoint x="520" y="370" as="sourcePoint" />
            <mxPoint x="450" y="475" as="targetPoint" />
          </mxGeometry>
        </mxCell>
        <mxCell id="x5du00-JkGEKFLk9tHyB-23" value="" style="endArrow=classic;html=1;rounded=0;exitX=0.25;exitY=1;exitDx=0;exitDy=0;entryX=0.493;entryY=0.355;entryDx=0;entryDy=0;entryPerimeter=0;" edge="1" parent="1" source="x5du00-JkGEKFLk9tHyB-12" target="x5du00-JkGEKFLk9tHyB-21">
          <mxGeometry width="50" height="50" relative="1" as="geometry">
            <mxPoint x="520" y="370" as="sourcePoint" />
            <mxPoint x="475" y="470" as="targetPoint" />
          </mxGeometry>
        </mxCell>
        <mxCell id="x5du00-JkGEKFLk9tHyB-25" value="" style="endArrow=classic;html=1;rounded=0;exitX=0.5;exitY=1;exitDx=0;exitDy=0;entryX=0.341;entryY=0.309;entryDx=0;entryDy=0;entryPerimeter=0;" edge="1" parent="1" source="x5du00-JkGEKFLk9tHyB-15" target="x5du00-JkGEKFLk9tHyB-21">
          <mxGeometry width="50" height="50" relative="1" as="geometry">
            <mxPoint x="490" y="490" as="sourcePoint" />
            <mxPoint x="540" y="440" as="targetPoint" />
          </mxGeometry>
        </mxCell>
        <mxCell id="x5du00-JkGEKFLk9tHyB-29" value="No" style="text;html=1;align=center;verticalAlign=middle;resizable=0;points=[];autosize=1;strokeColor=none;fillColor=none;" vertex="1" parent="1">
          <mxGeometry x="210" y="288" width="40" height="30" as="geometry" />
        </mxCell>
        <mxCell id="x5du00-JkGEKFLk9tHyB-33" value="Route Interruption/Event check" style="rounded=1;whiteSpace=wrap;html=1;" vertex="1" parent="1">
          <mxGeometry x="380" y="510" width="140" height="30" as="geometry" />
        </mxCell>
        <mxCell id="x5du00-JkGEKFLk9tHyB-34" value="" style="endArrow=classic;html=1;rounded=0;exitX=0.442;exitY=0.945;exitDx=0;exitDy=0;exitPerimeter=0;entryX=0.5;entryY=0;entryDx=0;entryDy=0;" edge="1" parent="1" source="x5du00-JkGEKFLk9tHyB-21" target="x5du00-JkGEKFLk9tHyB-33">
          <mxGeometry width="50" height="50" relative="1" as="geometry">
            <mxPoint x="400" y="500" as="sourcePoint" />
            <mxPoint x="450" y="450" as="targetPoint" />
          </mxGeometry>
        </mxCell>
        <mxCell id="x5du00-JkGEKFLk9tHyB-35" value="" style="endArrow=classic;html=1;rounded=0;exitX=0;exitY=0.5;exitDx=0;exitDy=0;" edge="1" parent="1" source="x5du00-JkGEKFLk9tHyB-33" target="x5du00-JkGEKFLk9tHyB-36">
          <mxGeometry width="50" height="50" relative="1" as="geometry">
            <mxPoint x="350" y="550" as="sourcePoint" />
            <mxPoint x="250" y="525" as="targetPoint" />
          </mxGeometry>
        </mxCell>
        <mxCell id="x5du00-JkGEKFLk9tHyB-39" value="" style="edgeStyle=segmentEdgeStyle;endArrow=classic;html=1;curved=0;rounded=0;endSize=8;startSize=8;exitX=0;exitY=0.5;exitDx=0;exitDy=0;" edge="1" parent="1" source="x5du00-JkGEKFLk9tHyB-38">
          <mxGeometry width="50" height="50" relative="1" as="geometry">
            <mxPoint x="300" y="540" as="sourcePoint" />
            <mxPoint x="130" y="340" as="targetPoint" />
            <Array as="points">
              <mxPoint x="110" y="585" />
              <mxPoint x="110" y="340" />
              <mxPoint x="120" y="340" />
            </Array>
          </mxGeometry>
        </mxCell>
        <mxCell id="x5du00-JkGEKFLk9tHyB-47" value="Application system" style="swimlane;whiteSpace=wrap;html=1;" vertex="1" parent="1">
          <mxGeometry x="315" y="40" width="305" height="660" as="geometry" />
        </mxCell>
        <mxCell id="x5du00-JkGEKFLk9tHyB-48" value="Public Transit planner" style="swimlane;whiteSpace=wrap;html=1;" vertex="1" parent="1">
          <mxGeometry x="620" y="40" width="200" height="660" as="geometry" />
        </mxCell>
      </root>
    </mxGraphModel>
  </diagram>
</mxfile>
